<svg width="1414" height="675" viewBox="0 0 1414 675" fill="none" xmlns="http://www.w3.org/2000/svg">
<g opacity="0.6">
<path d="M249.534 14.5604L237.695 1.58691L224.722 13.4252L236.56 26.3986L249.534 14.5604Z" stroke="white" stroke-width="2"/>
<path d="M419.266 17.6121L417.766 16.7461V18.4781V35.5666V37.2986L419.266 36.4326L434.065 27.8884L435.565 27.0223L434.065 26.1563L419.266 17.6121Z" stroke="white" stroke-width="2"/>
<path d="M899.5 103.866L898 103V104.732V121.821V123.552L899.5 122.687L914.299 114.142L915.799 113.276L914.299 112.41L899.5 103.866Z" stroke="white" stroke-width="2"/>
<path d="M12.7271 26.09L11.6638 24.7227L11.0114 26.3272L4.57432 42.1569L3.92188 43.7613L5.63761 43.5241L22.565 41.184L24.2808 40.9468L23.2175 39.5795L12.7271 26.09Z" stroke="white" stroke-width="2"/>
<path d="M15.766 241.374L15.1453 239.757L14.0553 241.103L3.30098 254.383L2.21094 255.729L3.92166 256L20.7996 258.674L22.5103 258.945L21.8897 257.328L15.766 241.374Z" stroke="white" stroke-width="2"/>
<path d="M537.592 481.112L536.971 479.495L535.881 480.841L511.704 510.697L510.613 512.043L512.324 512.314L550.269 518.325L551.98 518.596L551.359 516.979L537.592 481.112Z" stroke="white" stroke-width="2"/>
<path d="M231.592 594.111L230.971 592.494L229.881 593.84L205.704 623.696L204.613 625.042L206.324 625.313L244.269 631.324L245.98 631.595L245.359 629.978L231.592 594.111Z" stroke="white" stroke-width="2"/>
<path d="M805.558 598.477L804.933 597L803.882 598.211L752.181 657.803L751 659.164L752.78 659.446L835.234 672.507L837.013 672.789L836.311 671.13L805.558 598.477Z" stroke="white" stroke-width="2"/>
<path d="M747.733 387.14L748.373 384.13L746.086 386.189L743.459 388.554L740.398 386.787L737.733 385.248L738.985 388.06L740.422 391.289L737.796 393.654L735.508 395.713L738.569 395.391L742.084 395.022L743.522 398.251L744.774 401.063L745.414 398.052L746.149 394.595L749.664 394.225L752.724 393.904L750.059 392.365L746.998 390.598L747.733 387.14Z" stroke="white" stroke-width="2"/>
<path d="M1401.47 561.011L1402.11 558L1399.83 560.06L1393.29 565.95L1385.66 561.549L1383 560.01L1384.25 562.821L1387.83 570.863L1381.29 576.753L1379 578.813L1382.06 578.491L1390.82 577.571L1394.4 585.613L1395.65 588.424L1396.29 585.414L1398.12 576.803L1406.87 575.883L1409.93 575.562L1407.27 574.023L1399.64 569.621L1401.47 561.011Z" stroke="white" stroke-width="2"/>
<path d="M99.9531 535.645L76.6907 544.342C73.8376 545.409 72.3895 548.587 73.4562 551.44L82.154 574.702C83.2208 577.555 86.3985 579.004 89.2516 577.937L112.514 569.239C115.367 568.172 116.815 564.995 115.748 562.141L107.051 538.879C105.984 536.026 102.806 534.578 99.9531 535.645Z" stroke="white" stroke-width="2"/>
<path d="M83.6292 555.312L89.0322 553.292L88.3449 551.453C88.2697 551.477 88.2084 551.493 88.1492 551.515C85.7872 552.398 83.4252 553.281 81.0636 554.165C81.0188 554.181 80.977 554.206 80.9336 554.227L86.0985 568.04C86.1866 568.002 86.273 567.959 86.3631 567.925C88.6567 567.067 90.9508 566.209 93.2446 565.351L93.5064 565.253L92.8094 563.389L87.4052 565.41L85.8387 561.22L91.2437 559.2L90.5496 557.343L85.1444 559.364L83.6291 555.311L83.6292 555.312Z" fill="white"/>
<path d="M100.011 560.595C102.139 560.442 103.56 559.261 104.415 557.353C104.512 557.137 104.629 557.008 104.854 556.929C105.486 556.71 106.109 556.466 106.735 556.232C106.808 556.205 106.883 556.184 106.964 556.158C106.878 556.969 106.615 557.807 106.191 558.6C105.259 560.341 103.544 561.865 101.185 562.418C99.6802 562.771 98.1352 562.616 96.7467 562.063C94.8334 561.302 93.217 559.784 92.4162 557.786C91.0034 554.262 92.3132 550.332 95.5463 548.41C98.5942 546.598 102.366 547.188 104.487 549.236C104.393 549.271 104.315 549.301 104.236 549.33C103.602 549.567 102.966 549.799 102.336 550.045C102.179 550.106 102.057 550.1 101.908 550.02C100.771 549.413 99.5696 549.139 98.2906 549.416C95.7279 549.969 93.9718 552.166 93.9728 554.789C93.974 558.105 96.782 560.828 100.011 560.595Z" fill="white"/>
<path d="M230.312 499C234.378 499 237.812 495.94 237.812 492C237.812 488.06 234.378 485 230.312 485C226.247 485 222.812 488.06 222.812 492C222.812 495.94 226.247 499 230.312 499Z" stroke="white" stroke-width="2"/>
<path d="M149.5 378C153.565 378 157 374.94 157 371C157 367.06 153.565 364 149.5 364C145.434 364 142 367.06 142 371C142 374.94 145.434 378 149.5 378Z" stroke="white" stroke-width="2"/>
<path d="M1069 115C1076.14 115 1082 109.443 1082 102.5C1082 95.5568 1076.14 90 1069 90C1061.86 90 1056 95.5568 1056 102.5C1056 109.443 1061.86 115 1069 115Z" stroke="white" stroke-width="2"/>
<path d="M764.812 499C772.506 499 778.812 492.992 778.812 485.5C778.812 478.008 772.506 472 764.812 472C757.117 472 750.812 478.008 750.812 485.5C750.812 492.992 757.117 499 764.812 499Z" stroke="white" stroke-width="2"/>
<path d="M1117 573C1129.1 573 1139 563.643 1139 552C1139 540.357 1129.1 531 1117 531C1104.9 531 1095 540.357 1095 552C1095 563.643 1104.9 573 1117 573Z" stroke="white" stroke-width="2"/>
<path d="M684 70C694.438 70 703 61.9942 703 52C703 42.0058 694.438 34 684 34C673.561 34 665 42.0058 665 52C665 61.9942 673.561 70 684 70Z" stroke="white" stroke-width="2"/>
<path d="M462 181C472.438 181 481 172.994 481 163C481 153.006 472.438 145 462 145C451.561 145 443 153.006 443 163C443 172.994 451.561 181 462 181Z" stroke="white" stroke-width="2"/>
<path d="M851.533 288.298L838.109 273.587L823.398 287.011L836.822 301.722L851.533 288.298Z" stroke="white" stroke-width="2"/>
<path d="M234.712 202.016L243.525 203.839C244.304 204 244.987 204.464 245.424 205.129C245.861 205.794 246.016 206.605 245.855 207.385L236.738 251.451C236.577 252.231 236.113 252.914 235.448 253.351C234.783 253.788 233.972 253.943 233.193 253.781L197.939 246.488C197.16 246.327 196.477 245.863 196.04 245.198C195.603 244.533 195.448 243.722 195.609 242.942L204.726 198.876C204.887 198.096 205.351 197.413 206.016 196.976C206.681 196.539 207.492 196.384 208.271 196.546L217.085 198.369M215.261 207.182L232.888 210.829M221.036 223.695L229.849 225.518M212.223 221.871L212.252 221.877M218.605 235.446L227.418 237.269M209.791 233.622L209.821 233.628M220.63 196.039L218.199 207.79L229.95 210.221L232.382 198.47L220.63 196.039Z" stroke="white" stroke-width="3" stroke-linecap="round" stroke-linejoin="round"/>
<path d="M385.275 427.258L392.185 426.542C392.796 426.479 393.407 426.661 393.884 427.048C394.361 427.435 394.664 427.996 394.728 428.607L398.309 463.16C398.372 463.771 398.19 464.382 397.803 464.859C397.415 465.336 396.855 465.639 396.244 465.703L368.601 468.568C367.99 468.631 367.379 468.449 366.902 468.062C366.425 467.674 366.122 467.114 366.058 466.503L362.477 431.949C362.414 431.338 362.596 430.727 362.983 430.25C363.371 429.773 363.931 429.47 364.542 429.407L371.453 428.69M372.169 435.601L385.991 434.169M380.274 446.403L387.184 445.687M373.363 447.119L373.386 447.117M381.229 455.617L388.139 454.901M374.318 456.333L374.341 456.331M373.518 426.148L374.473 435.362L383.687 434.408L382.732 425.193L373.518 426.148Z" stroke="white" stroke-width="2" stroke-linecap="round" stroke-linejoin="round"/>
<path d="M1305.15 374.502L1314.7 373.512C1315.55 373.425 1316.39 373.676 1317.05 374.211C1317.71 374.746 1318.13 375.521 1318.21 376.365L1323.16 424.101C1323.25 424.945 1323 425.789 1322.46 426.448C1321.93 427.107 1321.15 427.526 1320.31 427.613L1282.12 431.571C1281.27 431.659 1280.43 431.407 1279.77 430.872C1279.11 430.337 1278.69 429.563 1278.61 428.718L1273.66 380.982C1273.57 380.138 1273.82 379.294 1274.36 378.635C1274.89 377.976 1275.67 377.557 1276.51 377.47L1286.06 376.48M1287.05 386.028L1306.14 384.049M1298.25 400.95L1307.79 399.961M1288.7 401.94L1288.73 401.937M1299.56 413.68L1309.11 412.691M1290.02 414.67L1290.05 414.666M1288.91 372.968L1290.23 385.698L1302.96 384.379L1301.64 371.649L1288.91 372.968Z" stroke="white" stroke-width="3" stroke-linecap="round" stroke-linejoin="round"/>
<path d="M725.182 292.993L705.183 311.937C704.588 312.5 704.202 313.23 704.08 314.018L703 321L710.371 319.977C711.204 319.861 711.974 319.494 712.568 318.93L732.564 299.986M725.182 292.993L729.535 288.867C729.825 288.592 730.17 288.374 730.549 288.225C730.928 288.077 731.334 288 731.744 288C732.155 288 732.561 288.077 732.94 288.225C733.319 288.374 733.664 288.592 733.954 288.867L736.918 291.676C737.208 291.95 737.438 292.277 737.595 292.636C737.752 292.995 737.833 293.38 737.833 293.769C737.833 294.158 737.752 294.543 737.595 294.902C737.438 295.261 737.208 295.587 736.918 295.862L732.564 299.986M725.182 292.993L732.564 299.986" stroke="white" stroke-width="2.29167" stroke-linecap="round" stroke-linejoin="round"/>
<path d="M55.1824 443.993L35.1831 462.937C34.5885 463.5 34.2015 464.23 34.0798 465.018L33 472L40.3714 470.977C41.2035 470.861 41.974 470.494 42.5681 469.93L62.5635 450.986M55.1824 443.993L59.5349 439.867C59.8251 439.592 60.1695 439.374 60.5486 439.225C60.9277 439.077 61.334 439 61.7444 439C62.1547 439 62.5611 439.077 62.9402 439.225C63.3193 439.374 63.6637 439.592 63.9538 439.867L66.918 442.676C67.2082 442.95 67.4384 443.277 67.5954 443.636C67.7525 443.995 67.8333 444.38 67.8333 444.769C67.8333 445.158 67.7525 445.543 67.5954 445.902C67.4384 446.261 67.2082 446.587 66.918 446.862L62.5635 450.986M55.1824 443.993L62.5635 450.986" stroke="white" stroke-width="2.29167" stroke-linecap="round" stroke-linejoin="round"/>
<path d="M1293.07 153.395L1271.46 174.282C1270.82 174.903 1270.41 175.703 1270.28 176.564L1269.18 184.192L1277.21 182.995C1278.12 182.859 1278.95 182.45 1279.6 181.828L1301.2 160.941M1293.07 153.395L1297.77 148.846C1298.09 148.543 1298.46 148.301 1298.87 148.135C1299.28 147.968 1299.72 147.88 1300.17 147.876C1300.62 147.871 1301.06 147.95 1301.48 148.108C1301.89 148.266 1302.27 148.501 1302.59 148.797L1305.86 151.828C1306.18 152.125 1306.43 152.478 1306.61 152.868C1306.78 153.258 1306.87 153.677 1306.88 154.101C1306.88 154.525 1306.8 154.946 1306.63 155.34C1306.46 155.733 1306.22 156.092 1305.9 156.395L1301.2 160.941M1293.07 153.395L1301.2 160.941" stroke="white" stroke-width="2.5" stroke-linecap="round" stroke-linejoin="round"/>
</g>
</svg>
