<svg width="19" height="19" viewBox="0 0 19 19" fill="none" xmlns="http://www.w3.org/2000/svg">
<path fill-rule="evenodd" clip-rule="evenodd" d="M9.73719 2.10077C5.5599 2.10077 2.1873 5.45134 2.1873 9.56758C2.1873 13.6838 5.5599 17.0344 9.73719 17.0344C13.9145 17.0344 17.2871 13.6838 17.2871 9.56758C17.2871 5.45134 13.9145 2.10077 9.73719 2.10077ZM0.617188 9.56758C0.617188 4.56885 4.70795 0.530273 9.73719 0.530273C14.7664 0.530273 18.8572 4.56885 18.8572 9.56758C18.8572 14.5663 14.7664 18.6049 9.73719 18.6049C4.70795 18.6049 0.617188 14.5663 0.617188 9.56758Z" fill="#323232"/>
<path fill-rule="evenodd" clip-rule="evenodd" d="M7.39653 4.01229C7.59034 4.40023 7.43305 4.87188 7.0452 5.06573C5.70166 5.73728 4.56376 7.50721 4.23259 9.61636C4.16532 10.0448 3.76357 10.3376 3.33524 10.2703C2.90692 10.203 2.61423 9.80112 2.68149 9.37269C3.06263 6.94531 4.40182 4.63132 6.34335 3.66087C6.7312 3.46701 7.20272 3.62435 7.39653 4.01229Z" fill="#323232"/>
<path d="M7.23178 7.94327C7.42229 7.12242 7.78499 6.50312 8.31987 6.08537C8.85476 5.66762 9.53985 5.45874 10.3751 5.45874C10.7049 5.45874 10.987 5.48439 11.2214 5.53569C11.4559 5.587 11.6904 5.65662 11.9248 5.74457L11.5841 7.01982C11.4083 6.96119 11.2288 6.91355 11.0456 6.8769C10.8624 6.83293 10.6353 6.81094 10.3642 6.81094C9.92452 6.81094 9.58015 6.90622 9.33102 7.09677C9.08923 7.28733 8.91337 7.56949 8.80346 7.94327H11.2434L11.0346 9.03163H8.66058C8.65326 9.11225 8.64959 9.18187 8.64959 9.24051C8.64959 9.29181 8.64959 9.34678 8.64959 9.40541C8.64959 9.46404 8.64959 9.51534 8.64959 9.55932C8.64959 9.60329 8.65326 9.66559 8.66058 9.74621H10.9027L10.6939 10.8346H8.80346C8.92803 11.2743 9.11487 11.5821 9.36399 11.758C9.61312 11.9266 9.92452 12.0109 10.2982 12.0109C10.54 12.0109 10.7855 11.9889 11.0346 11.9449C11.2837 11.9009 11.5328 11.8276 11.782 11.725L12.1007 12.9893C11.9029 13.0919 11.6464 13.1798 11.3313 13.2531C11.0236 13.3338 10.6609 13.3741 10.2433 13.3741C9.32736 13.3741 8.62761 13.1542 8.14402 12.7145C7.66042 12.2674 7.34169 11.6408 7.18782 10.8346H6.39648V9.74621H7.0889C7.08158 9.66559 7.07791 9.60329 7.07791 9.55932C7.07791 9.51534 7.07791 9.46404 7.07791 9.40541C7.07791 9.34678 7.07791 9.28448 7.07791 9.21852C7.07791 9.15256 7.08158 9.09026 7.0889 9.03163H6.39648V7.94327H7.23178Z" fill="#323232"/>
</svg>
