<svg width="57" height="61" viewBox="0 0 57 61" fill="none" xmlns="http://www.w3.org/2000/svg">
<path d="M40.4414 7.28796V11.8429H43.0411V6.0659L46.5073 1.87754L44.584 0L40.8853 4.55498C40.5302 4.99225 40.4414 5.83037 40.4414 6.19477V7.28796Z" fill="#808080"/>
<path d="M28.5977 17.6201H55.4609L53.1501 60.6591H31.1973L28.5977 17.6201Z" fill="#CC0033"/>
<rect x="27.1543" y="15.0205" width="29.4629" height="2.88852" fill="#F08616"/>
<rect x="31.4844" y="11.843" width="21.0862" height="3.17737" fill="#CCCCCC"/>
<circle cx="42.1744" cy="39.2838" r="7.2213" fill="#E0E0E0"/>
<path d="M35.0194 60.624H8.01953C7.50342 60.6242 6.99233 60.5227 6.51547 60.3253C6.03861 60.1279 5.60532 59.8384 5.24038 59.4735C4.87543 59.1085 4.58598 58.6752 4.38857 58.1984C4.19115 57.7215 4.08964 57.2104 4.08984 56.6943V53.6692L21.5202 51.9302L38.978 53.6677V56.6791C38.9728 57.726 38.5539 58.7283 37.8126 59.4676C37.0713 60.2069 36.0678 60.6231 35.0209 60.6255" fill="#E19747"/>
<path d="M26.5067 25.9966H16.5543C14.8879 25.9964 13.2378 26.3245 11.6982 26.9621C10.1586 27.5997 8.75968 28.5344 7.58134 29.7127C6.40301 30.891 5.46834 32.2899 4.83073 33.8295C4.19311 35.3691 3.86503 37.0193 3.86523 38.6857V40.7039H39.2111V38.6857C39.1958 31.6836 33.5088 25.9966 26.5067 25.9966Z" fill="#F3AD61"/>
<path d="M26.4133 29.7267C26.419 29.8848 26.3928 30.0425 26.3362 30.1903C26.2796 30.338 26.1938 30.4729 26.084 30.5867C25.9741 30.7006 25.8425 30.7912 25.6968 30.853C25.5512 30.9149 25.3946 30.9468 25.2364 30.9468C25.0782 30.9468 24.9216 30.9149 24.7759 30.853C24.6303 30.7912 24.4986 30.7006 24.3888 30.5867C24.2789 30.4729 24.1932 30.338 24.1366 30.1903C24.08 30.0425 24.0538 29.8848 24.0595 29.7267C24.0704 29.4219 24.1992 29.1333 24.4187 28.9215C24.6383 28.7098 24.9314 28.5914 25.2364 28.5914C25.5414 28.5914 25.8345 28.7098 26.054 28.9215C26.2735 29.1333 26.4023 29.4219 26.4133 29.7267ZM17.8064 30.9044C17.9645 30.9101 18.1222 30.8839 18.27 30.8273C18.4177 30.7707 18.5526 30.6849 18.6664 30.5751C18.7803 30.4652 18.8709 30.3336 18.9327 30.1879C18.9946 30.0423 19.0265 29.8857 19.0265 29.7275C19.0265 29.5693 18.9946 29.4127 18.9327 29.267C18.8709 29.1214 18.7803 28.9897 18.6664 28.8799C18.5526 28.77 18.4177 28.6843 18.27 28.6277C18.1222 28.5711 17.9645 28.5449 17.8064 28.5506C17.5016 28.5615 17.213 28.6903 17.0012 28.9099C16.7895 29.1294 16.6711 29.4225 16.6711 29.7275C16.6711 30.0325 16.7895 30.3256 17.0012 30.5451C17.213 30.7646 17.5016 30.8934 17.8064 30.9044ZM30.5108 33.0294C30.5108 33.3418 30.3867 33.6413 30.1659 33.8622C29.945 34.083 29.6455 34.2071 29.3331 34.2071C29.0208 34.2071 28.7212 34.083 28.5004 33.8622C28.2795 33.6413 28.1554 33.3418 28.1554 33.0294C28.1554 32.7171 28.2795 32.4175 28.5004 32.1967C28.7212 31.9758 29.0208 31.8518 29.3331 31.8518C29.6455 31.8518 29.945 31.9758 30.1659 32.1967C30.3867 32.4175 30.5108 32.7171 30.5108 33.0294ZM13.7105 34.2071C14.0228 34.2069 14.3223 34.0826 14.543 33.8616C14.7637 33.6406 14.8876 33.341 14.8874 33.0287C14.8872 32.7163 14.7629 32.4169 14.5419 32.1961C14.3209 31.9754 14.0213 31.8515 13.7089 31.8518C13.3966 31.8518 13.097 31.9758 12.8762 32.1967C12.6553 32.4175 12.5312 32.7171 12.5312 33.0294C12.5312 33.3418 12.6553 33.6413 12.8762 33.8622C13.097 34.083 13.3966 34.2071 13.7089 34.2071M21.521 35.5511C21.6791 35.5568 21.8368 35.5306 21.9846 35.474C22.1323 35.4174 22.2672 35.3316 22.381 35.2218C22.4949 35.1119 22.5855 34.9802 22.6473 34.8346C22.7092 34.689 22.7411 34.5324 22.7411 34.3742C22.7411 34.2159 22.7092 34.0593 22.6473 33.9137C22.5855 33.7681 22.4949 33.6364 22.381 33.5266C22.2672 33.4167 22.1323 33.3309 21.9846 33.2744C21.8368 33.2178 21.6791 33.1915 21.521 33.1972C21.2162 33.2082 20.9276 33.337 20.7158 33.5565C20.504 33.7761 20.3857 34.0692 20.3857 34.3742C20.3857 34.6792 20.504 34.9723 20.7158 35.1918C20.9276 35.4113 21.2162 35.5401 21.521 35.5511Z" fill="#FFF3D7"/>
<path d="M38.9628 40.3516H4.07617V45.2438L21.4913 48.2048L38.9628 45.2438V40.3516Z" fill="#F8312F"/>
<path d="M6.02166 38.4675C7.35189 37.7582 8.93079 36.9268 11.8597 36.9268C14.7902 36.9268 16.3661 37.7597 17.6948 38.4675L17.7222 38.4828C18.7977 39.0579 19.6444 39.5094 21.536 39.5094C23.4307 39.5094 24.2758 39.0579 25.3513 38.4843L25.3803 38.469C26.7074 37.7597 28.2848 36.9268 31.2153 36.9268C34.1443 36.9268 35.7216 37.7597 37.0488 38.469L37.0793 38.4843C38.1517 39.0594 38.9938 39.5094 40.8778 39.5094C41.4418 39.5094 41.9827 39.7335 42.3815 40.1323C42.7803 40.5311 43.0044 41.072 43.0044 41.636C43.0044 42.2 42.7803 42.7409 42.3815 43.1397C41.9827 43.5385 41.4418 43.7625 40.8778 43.7625C37.9458 43.7625 36.37 42.9281 35.0428 42.2187L35.0123 42.2035C33.9383 41.6284 33.0978 41.1783 31.2138 41.1783C29.3328 41.1783 28.4908 41.6283 27.4153 42.2019L27.3832 42.2202C26.053 42.9296 24.4741 43.761 21.5375 43.761C18.6009 43.761 17.022 42.9296 15.6918 42.2202L15.6598 42.2019C14.5843 41.6283 13.7422 41.1799 11.8613 41.1799C9.97575 41.1799 9.13063 41.6299 8.05057 42.205L8.02159 42.2202C6.69135 42.9296 5.11246 43.761 2.1835 43.761C1.89955 43.7686 1.61695 43.7193 1.35238 43.6158C1.08782 43.5124 0.846653 43.3571 0.643123 43.1589C0.439594 42.9608 0.277825 42.7238 0.167367 42.4621C0.056909 42.2004 0 41.9193 0 41.6352C0 41.3512 0.056909 41.07 0.167367 40.8083C0.277825 40.5466 0.439594 40.3097 0.643123 40.1115C0.846653 39.9134 1.08782 39.758 1.35238 39.6546C1.61695 39.5512 1.89955 39.5018 2.1835 39.5094C4.06749 39.5094 4.91415 39.0594 5.99267 38.4828L6.02166 38.4675Z" fill="#44911B"/>
<path d="M39.3332 53.6676H3.7128C2.77239 53.6667 1.87072 53.2928 1.20574 52.6278C0.540762 51.9629 0.166824 51.0612 0.166016 50.1208C0.166824 49.1803 0.540762 48.2787 1.20574 47.6137C1.87072 46.9487 2.77239 46.5748 3.7128 46.574H39.3332C40.2737 46.5748 41.1753 46.9487 41.8403 47.6137C42.5053 48.2787 42.8792 49.1803 42.88 50.1208C42.8792 51.0612 42.5053 51.9629 41.8403 52.6278C41.1753 53.2928 40.2737 53.6667 39.3332 53.6676Z" fill="#6D4534"/>
<path d="M38.9628 45.2441H4.07617V46.5744L15.191 49.0655C19.3495 49.9991 23.6758 49.9991 27.8343 49.0655L38.9476 46.5744V45.2441H38.9628Z" fill="#FCD53F"/>
</svg>
