<svg width="40" height="55" viewBox="0 0 40 55" fill="none" xmlns="http://www.w3.org/2000/svg">
<path d="M30.8626 22.0698C32.0056 22.2141 33.133 20.8316 33.3853 18.984C33.6376 17.1364 32.9143 15.5213 31.7734 15.3771C30.6326 15.2328 29.7218 21.9234 30.8626 22.0698Z" fill="#E27407"/>
<path d="M8.57227 22.0698C7.42923 22.2141 6.29957 20.8316 6.04953 18.984C5.79949 17.1364 6.52059 15.5213 7.6614 15.3771C8.80221 15.2328 9.71308 21.9234 8.57227 22.0698Z" fill="#E27407"/>
<path d="M14.7684 28.5815C14.7684 29.4718 14.3991 31.1636 14.3991 33.1224L13.5684 34.0128C13.9376 35.0813 15.0453 34.6361 20.307 35.1703C24.5163 35.5977 25.6301 35.8826 26.7686 34.0128L25.384 32.8553C24.8301 31.3416 25.3532 29.0267 25.0147 28.5815C21.4454 28.255 14.7684 27.2459 14.7684 28.5815Z" fill="#FF9A02" stroke="#E27407" stroke-width="0.553858"/>
<path d="M19.8532 30.5138C26.3769 30.5138 31.6654 24.2346 31.6654 16.4887C31.6654 8.74287 26.3769 2.46362 19.8532 2.46362C13.3295 2.46362 8.04102 8.74287 8.04102 16.4887C8.04102 24.2346 13.3295 30.5138 19.8532 30.5138Z" fill="url(#paint0_linear_694_20705)" stroke="#E27407" stroke-width="0.553858" stroke-miterlimit="10"/>
<path d="M8.64454 5.97558C4.40278 8.89774 8.03729 15.9092 8.03729 15.9092C8.03729 15.9092 12.5804 12.6963 15.0049 8.02131C15.0049 8.02131 17.6326 15.9092 31.0142 15.9092C34.651 15.9092 31.7443 7.76503 31.6639 7.72842C29.8466 3.05339 25.8862 1.31991 20.9233 0.204454C19.4655 -0.122863 17.9719 -0.0108738 16.494 0.217387C9.24954 1.29409 8.64454 5.97558 8.64454 5.97558Z" fill="#333333"/>
<path d="M19.8466 32.5883C18.5542 32.5883 12.5361 32.1416 12.5361 32.1416C8.83437 33.4084 5.41658 33.9343 3.18195 36.76C0.947321 39.5857 1.47996e-06 39.8582 1.47996e-06 47.9936V53.4234H39.8778V47.9936C38.1834 33.9967 34.7136 34.6983 27.4051 32.168C27.4051 32.168 21.1389 32.5883 19.8466 32.5883Z" fill="#3B496B"/>
<path d="M24.9245 31.876C24.9245 31.876 21.1625 32.5883 19.8457 32.5883C18.529 32.5883 14.9551 31.876 14.9551 31.876L14.9735 53.4234H24.9245V31.876Z" fill="white"/>
<g filter="url(#filter0_d_694_20705)">
<path d="M25.1295 31.5198L24.8325 31.7682V53.4233L29.8132 41.2219C30.0305 40.6631 29.8675 40.0577 29.3785 39.654L26.9153 37.5894C26.8467 37.5324 26.7997 37.4588 26.7806 37.3785C26.7616 37.2982 26.7713 37.2148 26.8085 37.1392C26.8457 37.0637 26.9087 36.9996 26.9891 36.9552C27.0696 36.9109 27.1638 36.8885 27.2594 36.8909H29.1612C29.5415 36.8909 29.7951 36.5494 29.6321 36.2544L27.4043 32.1873L27.3971 32.1749C26.6572 31.9178 25.9 31.699 25.1295 31.5198ZM12.5221 32.1454L12.5167 32.1562L10.2165 36.332C10.0535 36.627 10.3252 36.9685 10.7055 36.9685H12.6072C13.0419 36.9685 13.2411 37.4187 12.9514 37.667L10.4882 39.7317C10.0173 40.1353 9.83617 40.7407 10.0716 41.284L15.0161 53.4233H15.0342V31.8458L14.2644 31.6284C13.6747 31.7776 13.0933 31.9501 12.5221 32.1454Z" fill="#4B5D87"/>
</g>
<g filter="url(#filter1_d_694_20705)">
<path d="M19.8932 32.5962C17.7502 32.6043 14.9551 31.8758 14.9551 31.8758V38.3398C14.9551 38.8858 15.5303 39.2029 15.9944 38.8506L19.8932 35.909L23.792 38.8506C24.2562 39.2029 24.9245 38.8858 24.9245 38.3398V31.6978C24.9245 31.6978 22.0362 32.5881 19.8932 32.5962Z" fill="white"/>
</g>
<path fill-rule="evenodd" clip-rule="evenodd" d="M16.9098 35.9139L20.0336 32.5881L22.9727 35.8723C23.0256 35.9203 23.0612 35.9834 23.0742 36.0524C23.0873 36.1213 23.0772 36.1925 23.0453 36.2555L21.6834 38.9091C21.6368 39.0009 21.3235 39.479 21.2336 39.5332C21.2323 39.534 21.231 39.5347 21.2297 39.5355L21.2072 39.5781L23.6328 53.4233H16.248L18.6917 39.5781L18.638 39.4779C18.4998 39.3367 18.232 38.9898 18.1923 38.9134L16.8395 36.3014C16.8063 36.2382 16.7952 36.1662 16.8078 36.0964C16.8205 36.0265 16.8563 35.9625 16.9098 35.9139Z" fill="#3E3E3E"/>
<defs>
<filter id="filter0_d_694_20705" x="9.23027" y="31.1505" width="21.4164" height="23.3805" filterUnits="userSpaceOnUse" color-interpolation-filters="sRGB">
<feFlood flood-opacity="0" result="BackgroundImageFix"/>
<feColorMatrix in="SourceAlpha" type="matrix" values="0 0 0 0 0 0 0 0 0 0 0 0 0 0 0 0 0 0 127 0" result="hardAlpha"/>
<feOffset dy="0.369238"/>
<feGaussianBlur stdDeviation="0.369238"/>
<feComposite in2="hardAlpha" operator="out"/>
<feColorMatrix type="matrix" values="0 0 0 0 0 0 0 0 0 0 0 0 0 0 0 0 0 0 0.25 0"/>
<feBlend mode="normal" in2="BackgroundImageFix" result="effect1_dropShadow_694_20705"/>
<feBlend mode="normal" in="SourceGraphic" in2="effect1_dropShadow_694_20705" result="shape"/>
</filter>
<filter id="filter1_d_694_20705" x="14.4012" y="31.3285" width="11.0765" height="8.40898" filterUnits="userSpaceOnUse" color-interpolation-filters="sRGB">
<feFlood flood-opacity="0" result="BackgroundImageFix"/>
<feColorMatrix in="SourceAlpha" type="matrix" values="0 0 0 0 0 0 0 0 0 0 0 0 0 0 0 0 0 0 127 0" result="hardAlpha"/>
<feOffset dy="0.184619"/>
<feGaussianBlur stdDeviation="0.276929"/>
<feComposite in2="hardAlpha" operator="out"/>
<feColorMatrix type="matrix" values="0 0 0 0 0 0 0 0 0 0 0 0 0 0 0 0 0 0 0.25 0"/>
<feBlend mode="normal" in2="BackgroundImageFix" result="effect1_dropShadow_694_20705"/>
<feBlend mode="normal" in="SourceGraphic" in2="effect1_dropShadow_694_20705" result="shape"/>
</filter>
<linearGradient id="paint0_linear_694_20705" x1="906.239" y1="8525.23" x2="3406.4" y2="8525.23" gradientUnits="userSpaceOnUse">
<stop stop-color="#FF9900"/>
<stop offset="0.3" stop-color="#FE9B09"/>
<stop offset="0.78" stop-color="#FDA123"/>
<stop offset="1" stop-color="#FCA430"/>
</linearGradient>
</defs>
</svg>
