<svg width="42" height="54" viewBox="0 0 42 54" fill="none" xmlns="http://www.w3.org/2000/svg">
<path d="M41.1858 53.0665L38.244 50.1247L35.3022 53.0665L32.3603 50.1247L29.4185 53.0665L26.4766 50.1247L23.5348 53.0665L20.5929 50.1247L17.6511 53.0665L14.7092 50.1247L11.7674 53.0665L8.82554 50.1247L5.88369 53.0665L2.94185 50.1247L0 53.0665V0.113281L2.94185 3.05513L5.82191 0.113281L8.82554 3.05513L11.8292 0.113281L14.7092 3.05513L17.7129 0.113281L20.5929 3.05513L23.6569 0.113281L26.4766 3.05513L29.6023 0.113281L32.3603 3.05513L35.2404 0.113281L38.244 3.05513L41.1858 0.113281V53.0665Z" fill="white"/>
<path d="M7.2267 8.89525C8.01228 8.89525 8.61193 9.03927 9.02567 9.32732C9.44464 9.61536 9.65413 10.0553 9.65413 10.6471C9.65413 11.3855 9.29015 11.8857 8.56218 12.1475C8.66169 12.268 8.77428 12.4146 8.89998 12.5875C9.02567 12.7603 9.15398 12.9488 9.28491 13.1531C9.41584 13.3521 9.54153 13.559 9.66199 13.7737C9.78244 13.9832 9.8898 14.19 9.98407 14.3943H8.87641C8.7769 14.2057 8.66954 14.0172 8.55432 13.8287C8.43911 13.6349 8.32127 13.449 8.20081 13.2709C8.0856 13.0876 7.97038 12.9174 7.85516 12.7603C7.73994 12.5979 7.63258 12.4539 7.53307 12.3282C7.45975 12.3335 7.39691 12.3361 7.34453 12.3361C7.29216 12.3361 7.24241 12.3361 7.19528 12.3361H6.71607V14.3943H5.72625V9.0288C5.96716 8.97643 6.22378 8.94239 6.49611 8.92667C6.76845 8.90573 7.01197 8.89525 7.2267 8.89525ZM7.2974 9.75153C7.08791 9.75153 6.89414 9.75939 6.71607 9.7751V11.5348H7.14814C7.38905 11.5348 7.60116 11.5217 7.78446 11.4955C7.96776 11.4693 8.11964 11.4222 8.24009 11.3541C8.36578 11.286 8.46005 11.1944 8.5229 11.0792C8.58575 10.9639 8.61717 10.8173 8.61717 10.6392C8.61717 10.4716 8.58575 10.3302 8.5229 10.215C8.46005 10.0998 8.3684 10.0082 8.24795 9.94007C8.13273 9.87198 7.99395 9.82485 7.83159 9.79866C7.66924 9.76724 7.49118 9.75153 7.2974 9.75153ZM10.7512 14.3943V8.95024H14.247V9.79081H11.741V11.1341H13.972V11.959H11.741V13.5537H14.4355V14.3943H10.7512ZM17.5743 14.5121C17.1658 14.5121 16.7992 14.4493 16.4745 14.3236C16.1498 14.1979 15.8748 14.0146 15.6496 13.7737C15.4244 13.5275 15.2516 13.229 15.1311 12.8781C15.0107 12.5272 14.9505 12.124 14.9505 11.6683C14.9505 11.2127 15.0185 10.8094 15.1547 10.4585C15.2961 10.1077 15.4873 9.81176 15.7282 9.57085C15.9691 9.3247 16.2519 9.13878 16.5766 9.01309C16.9013 8.8874 17.2496 8.82455 17.6214 8.82455C17.8466 8.82455 18.0509 8.84288 18.2342 8.87954C18.4175 8.91096 18.5772 8.94762 18.7134 8.98952C18.8495 9.03142 18.9621 9.07593 19.0512 9.12307C19.1402 9.1702 19.203 9.20424 19.2397 9.22519L18.949 10.0343C18.8233 9.95578 18.6427 9.88246 18.407 9.81438C18.1766 9.74106 17.9252 9.7044 17.6528 9.7044C17.4172 9.7044 17.1972 9.74629 16.9929 9.83009C16.7887 9.90864 16.6106 10.0291 16.4588 10.1915C16.3121 10.3538 16.1969 10.5581 16.1131 10.8042C16.0293 11.0503 15.9874 11.3358 15.9874 11.6605C15.9874 11.9485 16.0188 12.213 16.0817 12.4539C16.1498 12.6948 16.2519 12.9043 16.3881 13.0824C16.5242 13.2552 16.697 13.3914 16.9065 13.4909C17.116 13.5851 17.3674 13.6323 17.6607 13.6323C18.0116 13.6323 18.297 13.5982 18.517 13.5302C18.7369 13.4568 18.9071 13.3887 19.0276 13.3259L19.2947 14.135C19.2318 14.1769 19.1454 14.2188 19.0354 14.2607C18.9307 14.3026 18.805 14.3445 18.6584 14.3864C18.5117 14.4231 18.3468 14.4519 18.1635 14.4728C17.9802 14.499 17.7838 14.5121 17.5743 14.5121ZM20.1643 14.3943V8.95024H23.6601V9.79081H21.1541V11.1341H23.3851V11.959H21.1541V13.5537H23.8486V14.3943H20.1643ZM24.7673 8.95024H25.7571V14.3943H24.7673V8.95024ZM28.6008 8.89525C29.3916 8.89525 29.9965 9.03927 30.4155 9.32732C30.8397 9.61536 31.0518 10.0658 31.0518 10.6785C31.0518 10.998 30.9942 11.2729 30.879 11.5034C30.769 11.7286 30.6067 11.9145 30.3919 12.0611C30.1772 12.2025 29.9154 12.3073 29.6064 12.3754C29.2974 12.4434 28.9439 12.4775 28.5458 12.4775H28.0509V14.3943H27.0611V9.0288C27.2915 8.97643 27.5455 8.94239 27.8231 8.92667C28.1059 8.90573 28.3652 8.89525 28.6008 8.89525ZM28.6715 9.75153C28.4201 9.75153 28.2133 9.75939 28.0509 9.7751V11.6291H28.5301C29.0067 11.6291 29.3733 11.5636 29.6299 11.4327C29.8866 11.2965 30.0149 11.0425 30.0149 10.6707C30.0149 10.4926 29.9808 10.3433 29.9127 10.2229C29.8447 10.1024 29.7504 10.0082 29.6299 9.94007C29.5095 9.87198 29.3655 9.82485 29.1979 9.79866C29.0355 9.76724 28.8601 9.75153 28.6715 9.75153ZM35.7499 8.95024V9.80652H34.0767V14.3943H33.079V9.80652H31.4057V8.95024H35.7499Z" fill="#929292"/>
<path d="M32.6431 42.7579C32.1599 42.7583 31.6859 42.6225 31.273 42.3652C30.8601 42.108 30.5242 41.7392 30.302 41.2992H32.6431L33.0495 40.4657H30.0337C30.0134 40.3282 30.0012 40.1906 30.0012 40.049C30.0012 39.9073 30.0134 39.7697 30.0337 39.6322H32.6431L33.0495 38.7987H30.302C30.5245 38.359 30.8606 37.9905 31.2734 37.7333C31.6862 37.4761 32.16 37.34 32.6431 37.34C33.2975 37.34 33.899 37.5859 34.3623 37.9943L35.0817 37.2566C34.4124 36.639 33.5436 36.2975 32.6431 36.2981C31.0498 36.2981 29.7005 37.3442 29.1965 38.7987H27.7658L27.3594 39.6322H29.0095C28.9768 39.909 28.9768 40.1889 29.0095 40.4657H27.7658L27.3594 41.2992H29.1965C29.7005 42.7537 31.0498 43.7998 32.6431 43.7998C33.582 43.7998 34.4355 43.4372 35.0817 42.8413L34.3583 42.1036C33.899 42.512 33.3015 42.7579 32.6431 42.7579Z" fill="#929292"/>
<rect x="5.29492" y="20.1914" width="17.4304" height="2.8683" rx="1.10319" fill="#929292"/>
<rect x="5.29492" y="24.6042" width="17.4304" height="2.8683" rx="1.10319" fill="#929292"/>
<rect x="5.29492" y="29.0168" width="17.4304" height="2.8683" rx="1.10319" fill="#929292"/>
<rect x="26.6973" y="20.1914" width="9.26682" height="2.8683" rx="1.10319" fill="#929292"/>
<rect x="26.6973" y="24.6042" width="9.26682" height="2.8683" rx="1.10319" fill="#929292"/>
<rect x="26.6973" y="29.0168" width="9.26682" height="2.8683" rx="1.10319" fill="#929292"/>
<rect x="5.29492" y="36.5186" width="19.1955" height="2.8683" rx="1.10319" fill="#929292"/>
<rect x="5.29492" y="40.9314" width="19.1955" height="2.8683" rx="1.10319" fill="#929292"/>
</svg>
